<svg xmlns="http://www.w3.org/2000/svg" width="24" height="24" viewBox="0 0 24 24">
  <title>debian2</title>
<style type="text/css">
	.st0{fill:#999999;}
</style>
	<path class="st0" d="M13.562,12.564c0.275,0.025,0.548,0.024,0.816-0.042c-0.096,0.091-0.204,0.185-0.323,0.278
		C13.624,12.734,13.232,12.569,13.562,12.564 M15.333,12.123c0.196-0.271,0.34-0.568,0.39-0.875
		c-0.044,0.219-0.163,0.408-0.275,0.607c-0.617,0.388-0.058-0.231,0-0.466C14.785,12.224,15.357,11.89,15.333,12.123 M15.987,10.421
		c0.04-0.594-0.117-0.406-0.17-0.18C15.879,10.274,15.928,10.661,15.987,10.421 M12.311,2.299c0.176,0.032,0.381,0.056,0.352,0.098
		C12.855,2.355,12.899,2.316,12.311,2.299 M12.663,2.397l-0.125,0.026l0.116-0.01L12.663,2.397 M18.154,10.647
		c0.02,0.534-0.156,0.793-0.315,1.251l-0.285,0.143c-0.233,0.453,0.023,0.288-0.145,0.648c-0.364,0.324-1.106,1.014-1.343,1.077
		c-0.173-0.004,0.117-0.204,0.155-0.283c-0.488,0.335-0.391,0.503-1.137,0.706l-0.022-0.048c-1.84,0.866-4.395-0.85-4.362-3.19
		c-0.02,0.149-0.056,0.111-0.097,0.172c-0.095-1.204,0.556-2.414,1.654-2.907c1.074-0.532,2.333-0.313,3.102,0.403
		c-0.423-0.554-1.264-1.14-2.26-1.085c-0.976,0.015-1.89,0.636-2.195,1.31c-0.5,0.315-0.558,1.214-0.776,1.379
		c-0.293,2.155,0.552,3.087,1.981,4.182c0.225,0.152,0.063,0.175,0.094,0.29c-0.475-0.222-0.91-0.558-1.267-0.969
		c0.19,0.278,0.394,0.548,0.659,0.76c-0.448-0.152-1.046-1.085-1.22-1.123c0.772,1.382,3.131,2.424,4.367,1.907
		c-0.572,0.021-1.298,0.012-1.94-0.226c-0.27-0.139-0.637-0.426-0.571-0.48c1.686,0.63,3.428,0.477,4.887-0.693
		c0.371-0.289,0.777-0.781,0.894-0.788c-0.176,0.265,0.03,0.128-0.105,0.362c0.37-0.596-0.161-0.243,0.382-1.03l0.201,0.276
		c-0.075-0.495,0.615-1.096,0.545-1.879c0.158-0.239,0.176,0.258,0.009,0.809c0.233-0.611,0.061-0.709,0.121-1.214
		c0.065,0.17,0.149,0.35,0.193,0.529c-0.152-0.591,0.156-0.995,0.232-1.338c-0.075-0.033-0.234,0.261-0.271-0.437
		C19.324,8.856,19.403,9,19.433,8.925c-0.059-0.034-0.216-0.266-0.311-0.712c0.069-0.105,0.184,0.271,0.278,0.287
		c-0.06-0.354-0.164-0.624-0.168-0.896c-0.274-0.572-0.097,0.076-0.319-0.246c-0.291-0.908,0.242-0.211,0.278-0.624
		c0.441,0.64,0.693,1.631,0.809,2.042c-0.088-0.501-0.231-0.986-0.405-1.455c0.134,0.056-0.216-1.03,0.174-0.311
		c-0.417-1.534-1.784-2.967-3.042-3.639c0.154,0.141,0.348,0.318,0.278,0.345c-0.625-0.372-0.515-0.401-0.605-0.559
		c-0.51-0.207-0.543,0.017-0.881,0c-0.96-0.509-1.146-0.455-2.029-0.774l0.04,0.188c-0.636-0.212-0.741,0.08-1.429,0.001
		c-0.042-0.033,0.22-0.118,0.436-0.15c-0.615,0.081-0.586-0.121-1.188,0.022c0.148-0.104,0.305-0.173,0.464-0.262
		c-0.502,0.03-1.198,0.292-0.983,0.054C10.012,2.603,8.559,3.116,7.743,3.88L7.718,3.709c-0.374,0.449-1.63,1.34-1.73,1.921
		l-0.1,0.023c-0.194,0.329-0.32,0.702-0.475,1.041C5.159,7.128,5.041,6.861,5.077,6.929c-0.5,1.014-0.749,1.867-0.963,2.566
		c0.153,0.229,0.004,1.376,0.062,2.295c-0.251,4.537,3.184,8.942,6.939,9.959c0.55,0.197,1.369,0.189,2.065,0.21
		c-0.821-0.235-0.928-0.125-1.728-0.403c-0.577-0.272-0.704-0.582-1.113-0.937l0.162,0.286c-0.802-0.284-0.466-0.351-1.119-0.558
		l0.173-0.226c-0.26-0.02-0.688-0.438-0.805-0.67l-0.284,0.011c-0.342-0.421-0.524-0.725-0.51-0.96l-0.092,0.164
		c-0.104-0.179-1.257-1.581-0.659-1.254c-0.111-0.102-0.259-0.165-0.419-0.456l0.122-0.139c-0.288-0.37-0.53-0.845-0.511-1.003
		c0.154,0.207,0.26,0.246,0.365,0.282c-0.727-1.803-0.767-0.099-1.318-1.835l0.116-0.009c-0.089-0.134-0.143-0.28-0.215-0.424
		l0.051-0.505c-0.523-0.605-0.146-2.572-0.071-3.651c0.052-0.439,0.437-0.906,0.729-1.638L5.875,8.001
		c0.34-0.594,1.944-2.385,2.687-2.293c0.36-0.452-0.071-0.002-0.142-0.116c0.79-0.818,1.039-0.578,1.572-0.725
		c0.575-0.341-0.494,0.133-0.221-0.13c0.994-0.254,0.705-0.577,2.002-0.706c0.137,0.078-0.318,0.12-0.432,0.221
		c0.828-0.405,2.622-0.313,3.786,0.225c1.351,0.632,2.87,2.498,2.93,4.255l0.068,0.018c-0.035,0.698,0.107,1.506-0.138,2.247
		L18.154,10.647 M9.96,13.017l-0.046,0.231c0.217,0.295,0.389,0.614,0.666,0.844C10.38,13.704,10.232,13.543,9.96,13.017
		 M10.473,12.997c-0.115-0.127-0.183-0.28-0.259-0.432c0.073,0.268,0.222,0.497,0.36,0.731L10.473,12.997 M19.545,11.025
		l-0.048,0.122c-0.089,0.631-0.281,1.256-0.575,1.835C19.247,12.371,19.457,11.702,19.545,11.025 M12.376,2.141
		c0.223-0.082,0.549-0.045,0.785-0.099c-0.309,0.026-0.616,0.041-0.919,0.08L12.376,2.141 M4.543,6.306
		c0.051,0.476-0.358,0.661,0.091,0.347C4.874,6.111,4.539,6.503,4.543,6.306 M4.015,8.509c0.103-0.317,0.122-0.508,0.162-0.692
		C3.891,8.183,4.045,8.261,4.015,8.509"/>
</svg>
