<svg xmlns="http://www.w3.org/2000/svg" width="24" height="24" viewBox="0 0 24 24">
  <title>apple2</title>
<style type="text/css">
	.st0{fill:#999999;}
</style>
	<path class="st0" d="M19,15.872c-0.092,0.268-0.19,0.524-0.293,0.77c-0.251,0.581-0.549,1.115-0.894,1.607
		c-0.47,0.67-0.855,1.134-1.151,1.391c-0.46,0.423-0.952,0.639-1.479,0.651c-0.379,0-0.835-0.108-1.367-0.326
		c-0.533-0.218-1.023-0.325-1.471-0.325c-0.47,0-0.974,0.108-1.513,0.325c-0.54,0.219-0.975,0.332-1.307,0.344
		c-0.506,0.022-1.01-0.201-1.513-0.669c-0.321-0.28-0.723-0.76-1.204-1.44c-0.516-0.726-0.941-1.569-1.273-2.529
		C5.179,14.633,5,13.629,5,12.657c0-1.114,0.241-2.075,0.723-2.88C6.102,9.13,6.606,8.62,7.237,8.246
		c0.631-0.374,1.312-0.565,2.047-0.577c0.402,0,0.928,0.124,1.583,0.368c0.653,0.245,1.072,0.369,1.256,0.369
		c0.137,0,0.603-0.145,1.392-0.435c0.746-0.269,1.376-0.38,1.892-0.336c1.398,0.113,2.449,0.664,3.148,1.657
		c-1.251,0.758-1.869,1.819-1.857,3.181c0.011,1.06,0.396,1.943,1.152,2.644C18.192,15.442,18.574,15.693,19,15.872z M14.591,6.348
		C15.196,5.629,15.5,4.853,15.5,4.022c0-0.11-0.005-0.221-0.017-0.333c-0.422,0.022-0.87,0.15-1.344,0.381
		c-0.475,0.234-0.867,0.528-1.175,0.882c-0.617,0.698-0.964,1.552-0.964,2.35c0,0.11,0.007,0.215,0.019,0.315
		C12.977,7.695,13.86,7.202,14.591,6.348z"/>
</svg>
