<svg xmlns="http://www.w3.org/2000/svg" width="24" height="24" viewBox="0 0 24 24">
<style type="text/css">
	.st0{fill:#999999;}
	.st5{fill:none;}
	.st6{fill:#C8C8C8;}
</style>
	<path class="st5" d="M13.94,13.398c0.49,0,0.887-0.385,0.886-0.875c0-0.486-0.392-0.873-0.877-0.873l-1.302,0
		c-0.005,0-0.007-0.005-0.012-0.005c-0.148-0.007-0.268-0.125-0.268-0.275V9.648c0.002-1.093,0.889-1.979,1.982-1.979
		c0.196,0,0.314,0.013,0.419,0.026c0.093,0.011,0.177,0.022,0.296,0.022c0.531,0,0.886-0.356,0.886-0.846
		c0-0.387-0.319-0.715-0.718-0.842c-0.112-0.027-0.22-0.064-0.335-0.081c-0.154-0.028-0.312-0.046-0.488-0.049
		c-0.02,0-0.039-0.006-0.06-0.006c-0.777,0-1.499,0.237-2.098,0.643c-0.999,0.675-1.657,1.818-1.657,3.114v1.988v0.002H9.022
		c-0.49,0-0.887,0.385-0.886,0.875c0,0.486,0.392,0.873,0.877,0.873l1.302,0c0.005,0,0.007,0.005,0.012,0.005
		c0.148,0.007,0.268,0.125,0.268,0.275v1.722c-0.002,1.093-0.889,1.979-1.982,1.979c-0.196,0-0.314-0.013-0.419-0.026
		c-0.093-0.011-0.177-0.022-0.296-0.022c-0.531,0-0.886,0.356-0.886,0.846c0,0.387,0.32,0.716,0.718,0.842
		c0.112,0.027,0.22,0.064,0.335,0.081c0.153,0.028,0.311,0.046,0.486,0.049c0.021,0,0.04,0.006,0.062,0.006
		c0.777,0,1.499-0.237,2.098-0.643c0.999-0.675,1.657-1.818,1.657-3.114V13.4v-0.002H13.94z"/>
	<path class="st0" d="M6.615,15.392c0,0.957,0.678,1.758,1.578,1.951c0.105,0.013,0.223,0.026,0.419,0.026
		c1.093,0,1.98-0.885,1.982-1.979v-1.722c0-0.15-0.12-0.268-0.268-0.275H8.612C7.511,13.394,6.615,14.29,6.615,15.392z"/>
	<path class="st0" d="M12.367,9.648v1.722c0,0.15,0.12,0.268,0.268,0.275h1.714c1.101,0,1.997-0.896,1.997-1.997
		c0-0.958-0.678-1.758-1.578-1.952c-0.105-0.013-0.223-0.026-0.419-0.026C13.256,7.669,12.369,8.555,12.367,9.648z"/>
	<path class="st0" d="M12,4c-4.416,0-7.997,3.579-8,7.995v6.191C4.002,19.188,4.816,20,5.819,20h6.184C16.42,19.998,20,16.418,20,12
		C20,7.582,16.418,4,12,4z M14.349,13.4h-1.982v1.988c0,1.296-0.657,2.439-1.657,3.114c-0.599,0.406-1.322,0.643-2.098,0.643
		c-0.021,0-0.041-0.006-0.062-0.006c-0.175-0.003-0.333-0.021-0.486-0.049c-0.091-0.017-0.181-0.032-0.282-0.059
		c-0.019-0.005-0.035-0.016-0.054-0.022c-1.64-0.4-2.87-1.855-2.87-3.617c0-2.069,1.683-3.753,3.753-3.753h1.982V9.651
		c0-1.296,0.657-2.439,1.657-3.114c0.599-0.406,1.321-0.643,2.098-0.643c0.021,0,0.039,0.006,0.06,0.006
		c0.176,0.003,0.335,0.021,0.488,0.049c0.091,0.017,0.18,0.032,0.281,0.058c0.019,0.005,0.035,0.017,0.054,0.023
		c1.64,0.4,2.869,1.855,2.869,3.616C18.102,11.716,16.418,13.4,14.349,13.4z"/>
	<path class="st6" d="M7.011,18.167c0-0.49,0.355-0.846,0.886-0.846c0.119,0,0.202,0.011,0.296,0.022
		c-0.901-0.193-1.578-0.994-1.578-1.951c0-1.101,0.896-1.997,1.997-1.997h1.714c-0.005,0-0.007-0.005-0.012-0.005l-1.302,0
		c-0.485,0-0.877-0.387-0.877-0.873c0-0.489,0.396-0.875,0.886-0.875h1.573v-0.002H8.612c-2.069,0-3.753,1.683-3.753,3.753
		c0,1.762,1.23,3.216,2.87,3.617C7.331,18.882,7.011,18.553,7.011,18.167z"/>
	<path class="st6" d="M7.783,19.031c0.101,0.026,0.19,0.042,0.282,0.059c-0.115-0.017-0.224-0.054-0.335-0.081
		C7.748,19.014,7.764,19.026,7.783,19.031z"/>
	<path class="st6" d="M15.232,6.031c0.398,0.126,0.718,0.455,0.718,0.842c0,0.49-0.355,0.846-0.886,0.846
		c-0.119,0-0.202-0.011-0.296-0.022c0.901,0.193,1.578,0.994,1.578,1.952c0,1.101-0.896,1.997-1.997,1.997h-1.714
		c0.005,0,0.007,0.005,0.012,0.005l1.302,0c0.485,0,0.877,0.387,0.877,0.873c0,0.489-0.396,0.875-0.886,0.875h-1.573V13.4h1.982
		c2.069,0,3.753-1.684,3.753-3.753C18.102,7.885,16.872,6.431,15.232,6.031z"/>
	<path class="st6" d="M15.178,6.008c-0.101-0.026-0.19-0.042-0.281-0.058c0.115,0.017,0.223,0.054,0.335,0.081
		C15.213,6.025,15.197,6.013,15.178,6.008z"/>
	<polygon class="st0" points="18.47,18.426 18.324,18.09 18.234,18.09 18.234,18.615 18.32,18.615 18.32,18.283 18.468,18.631 
		18.62,18.283 18.62,18.615 18.705,18.615 18.705,18.09 18.614,18.09 	"/>
	<polygon class="st0" points="17.76,18.178 17.91,18.178 17.91,18.615 17.999,18.615 17.999,18.178 18.148,18.178 18.148,18.09 
		17.76,18.09 	"/>
</svg>
