<?xml version="1.0" encoding="utf-8"?>
<!-- Generator: Adobe Illustrator 21.1.0, SVG Export Plug-In . SVG Version: 6.00 Build 0)  -->
<svg version="1.1" id="Ebene_2" xmlns="http://www.w3.org/2000/svg" xmlns:xlink="http://www.w3.org/1999/xlink" x="0px" y="0px"
	 viewBox="0 0 23.615 32" enable-background="new 0 0 23.615 32" xml:space="preserve">
<g>
	<path fill="#17A1E5" d="M11.686,27.957c0.009-0.053-0.026-0.103-0.079-0.113l-2.946-0.519c-0.025-0.004-0.048-0.019-0.063-0.04
		l-0.475-0.681c-0.015-0.021-0.037-0.035-0.062-0.04l-1.849-0.341c-0.053-0.01-0.104,0.026-0.113,0.079l-0.279,1.583l5.702,1.005
		L11.686,27.957z"/>
	<path fill="#17A1E5" d="M5.285,30.914c-0.009,0.053,0.026,0.103,0.079,0.113l5.51,0.972c0.053,0.009,0.103-0.026,0.113-0.079
		l0.427-2.424L5.713,28.49L5.285,30.914z"/>
	<path fill="#17A1E5" d="M13.584,0.23c0.004,0.001,0.009,0.001,0.013,0.001C8.34-0.689,1.754,0.972,0.209,8.275
		C-1.384,15.8,6.653,23.129,6.653,23.129l0.581,0.102c-2.1-3.071-4.511-8.979-3.657-14.116C4.523,3.419,9.212-0.51,13.584,0.23z"/>
	<path fill="#17A1E5" d="M23.489,12.38c1.046-7.398-4.586-11.212-9.846-12.141c4.376,0.785,7.451,6.091,6.39,11.778
		c-0.955,5.119-5.241,9.846-8.265,12.014l0.584,0.103C12.352,24.134,22.411,19.995,23.489,12.38z"/>
	<path fill="#17A1E5" d="M8.046,9.968c-0.727,4.123-0.464,10.238,0.189,13.44l1.268,0.224l0,0l0,0l1.251,0.22
		c1.709-2.785,4.047-8.442,4.774-12.565c1.01-5.729,0.166-10.668-1.886-11.049l0,0l0,0l0,0c-0.005-0.001-0.009-0.002-0.013-0.003
		l0,0c-0.001,0-0.002,0-0.004-0.001c-0.002,0-0.003,0-0.005,0c-0.001,0-0.003-0.001-0.004-0.001
		c-0.01-0.002-0.021-0.003-0.031-0.004C11.529-0.095,9.054,4.251,8.046,9.968z"/>
</g>
</svg>
